<svg xmlns="http://www.w3.org/2000/svg" width="460" height="336" viewBox="0 0 460 336" fill="none"><g transform="translate(120,18)"><ellipse cx="110" cy="82" rx="86" ry="33" transform="rotate(34 110 82)" stroke="#a99377" stroke-width="6.5"></ellipse><ellipse cx="110" cy="82" rx="86" ry="33" transform="rotate(-34 110 82)" stroke="#16171f" stroke-width="7.5"></ellipse><circle cx="110" cy="82" r="15" fill="#16171f"></circle><circle cx="182" cy="43" r="10.5" fill="#3f4fe0"></circle></g><path d="M67.281 228.162Q68.707 225 71.652 223.264Q74.597 221.528 78.875 221.528L78.875 221.528L78.875 226.054L77.697 226.054Q72.985 226.054 70.133 228.596Q67.281 231.138 67.281 237.090L67.281 237.090L67.281 256L62.941 256L62.941 222.148L67.281 222.148L67.281 228.162Z M116.013 237.338Q116.013 239.570 115.889 240.748L115.889 240.748L87.803 240.748Q87.989 244.592 89.663 247.320Q91.337 250.048 94.065 251.443Q96.793 252.838 100.017 252.838L100.017 252.838Q104.233 252.838 107.116 250.792Q109.999 248.746 110.929 245.274L110.929 245.274L115.517 245.274Q114.277 250.234 110.216 253.365Q106.155 256.496 100.017 256.496L100.017 256.496Q95.243 256.496 91.461 254.357Q87.679 252.218 85.540 248.281Q83.401 244.344 83.401 239.074L83.401 239.074Q83.401 233.804 85.509 229.836Q87.617 225.868 91.399 223.760Q95.181 221.652 100.017 221.652L100.017 221.652Q104.853 221.652 108.480 223.760Q112.107 225.868 114.060 229.433Q116.013 232.998 116.013 237.338L116.013 237.338ZM111.611 237.214Q111.673 233.432 110.092 230.766Q108.511 228.100 105.783 226.736Q103.055 225.372 99.831 225.372L99.831 225.372Q94.995 225.372 91.585 228.472Q88.175 231.572 87.803 237.214L87.803 237.214L111.611 237.214Z M123.949 210.120L128.289 210.120L128.289 256L123.949 256L123.949 210.120Z M136.163 239.012Q136.163 233.804 138.240 229.867Q140.317 225.930 144.006 223.791Q147.695 221.652 152.345 221.652L152.345 221.652Q157.181 221.652 160.684 223.884Q164.187 226.116 165.737 229.588L165.737 229.588L165.737 222.148L170.077 222.148L170.077 256L165.737 256L165.737 248.498Q164.125 251.970 160.622 254.233Q157.119 256.496 152.283 256.496L152.283 256.496Q147.695 256.496 144.006 254.326Q140.317 252.156 138.240 248.188Q136.163 244.220 136.163 239.012L136.163 239.012ZM165.737 239.074Q165.737 234.982 164.063 231.882Q162.389 228.782 159.506 227.108Q156.623 225.434 153.151 225.434L153.151 225.434Q149.555 225.434 146.703 227.046Q143.851 228.658 142.208 231.727Q140.565 234.796 140.565 239.012L140.565 239.012Q140.565 243.166 142.208 246.297Q143.851 249.428 146.703 251.071Q149.555 252.714 153.151 252.714L153.151 252.714Q156.623 252.714 159.506 251.040Q162.389 249.366 164.063 246.266Q165.737 243.166 165.737 239.074L165.737 239.074Z M178.013 239.012Q178.013 233.804 180.121 229.867Q182.229 225.930 185.918 223.791Q189.607 221.652 194.257 221.652L194.257 221.652Q199.031 221.652 202.565 223.915Q206.099 226.178 207.587 229.588L207.587 229.588L207.587 222.148L211.927 222.148L211.927 271.996L207.587 271.996L207.587 248.560Q206.099 251.970 202.534 254.233Q198.969 256.496 194.133 256.496L194.133 256.496Q189.545 256.496 185.856 254.326Q182.167 252.156 180.090 248.188Q178.013 244.220 178.013 239.012L178.013 239.012ZM207.587 239.074Q207.587 234.982 205.913 231.882Q204.239 228.782 201.356 227.108Q198.473 225.434 195.001 225.434L195.001 225.434Q191.405 225.434 188.553 227.046Q185.701 228.658 184.058 231.727Q182.415 234.796 182.415 239.012L182.415 239.012Q182.415 243.166 184.058 246.297Q185.701 249.428 188.553 251.071Q191.405 252.714 195.001 252.714L195.001 252.714Q198.473 252.714 201.356 251.040Q204.239 249.366 205.913 246.266Q207.587 243.166 207.587 239.074L207.587 239.074Z M246.833 222.148L251.173 222.148L251.173 256L246.833 256L246.833 250.048Q245.345 253.210 242.245 254.884Q239.145 256.558 235.301 256.558L235.301 256.558Q229.225 256.558 225.381 252.807Q221.537 249.056 221.537 241.926L221.537 241.926L221.537 222.148L225.815 222.148L225.815 241.430Q225.815 246.948 228.574 249.862Q231.333 252.776 236.107 252.776L236.107 252.776Q241.005 252.776 243.919 249.676Q246.833 246.576 246.833 240.562L246.833 240.562L246.833 222.148Z M259.109 239.012Q259.109 233.804 261.186 229.867Q263.263 225.930 266.952 223.791Q270.641 221.652 275.291 221.652L275.291 221.652Q280.127 221.652 283.630 223.884Q287.133 226.116 288.683 229.588L288.683 229.588L288.683 222.148L293.023 222.148L293.023 256L288.683 256L288.683 248.498Q287.071 251.970 283.568 254.233Q280.065 256.496 275.229 256.496L275.229 256.496Q270.641 256.496 266.952 254.326Q263.263 252.156 261.186 248.188Q259.109 244.220 259.109 239.012L259.109 239.012ZM288.683 239.074Q288.683 234.982 287.009 231.882Q285.335 228.782 282.452 227.108Q279.569 225.434 276.097 225.434L276.097 225.434Q272.501 225.434 269.649 227.046Q266.797 228.658 265.154 231.727Q263.511 234.796 263.511 239.012L263.511 239.012Q263.511 243.166 265.154 246.297Q266.797 249.428 269.649 251.071Q272.501 252.714 276.097 252.714L276.097 252.714Q279.569 252.714 282.452 251.040Q285.335 249.366 287.009 246.266Q288.683 243.166 288.683 239.074L288.683 239.074Z M318.815 221.528Q324.891 221.528 328.735 225.279Q332.579 229.030 332.579 236.160L332.579 236.160L332.579 256L328.301 256L328.301 236.656Q328.301 231.138 325.542 228.224Q322.783 225.310 318.009 225.310L318.009 225.310Q313.111 225.310 310.197 228.410Q307.283 231.510 307.283 237.524L307.283 237.524L307.283 256L302.943 256L302.943 222.148L307.283 222.148L307.283 227.914Q308.895 224.814 311.933 223.171Q314.971 221.528 318.815 221.528L318.815 221.528Z M357.131 225.806L347.831 225.806L347.831 246.824Q347.831 249.924 349.009 251.102Q350.187 252.280 353.163 252.280L353.163 252.280L357.131 252.280L357.131 256L352.481 256Q347.893 256 345.661 253.861Q343.429 251.722 343.429 246.824L343.429 246.824L343.429 225.806L338.717 225.806L338.717 222.148L343.429 222.148L343.429 213.654L347.831 213.654L347.831 222.148L357.131 222.148L357.131 225.806Z M366.431 215.762Q365.129 215.762 364.199 214.832Q363.269 213.902 363.269 212.538L363.269 212.538Q363.269 211.174 364.199 210.275Q365.129 209.376 366.431 209.376L366.431 209.376Q367.733 209.376 368.663 210.275Q369.593 211.174 369.593 212.538L369.593 212.538Q369.593 213.902 368.663 214.832Q367.733 215.762 366.431 215.762L366.431 215.762ZM364.261 222.148L368.601 222.148L368.601 256L364.261 256L364.261 222.148Z M401.089 256L396.191 256L387.449 242.360L379.017 256L374.429 256L385.341 239.074L374.553 222.148L379.451 222.148L388.069 235.602L396.439 222.148L400.965 222.148L390.177 238.888L401.089 256Z" fill="#16171f"></path><path d="M89.528 282.144Q89.528 282.780 89.228 283.344Q88.928 283.908 88.268 284.262Q87.608 284.616 86.576 284.616L86.576 284.616L85.064 284.616L85.064 288L83.696 288L83.696 279.660L86.576 279.660Q87.536 279.660 88.202 279.990Q88.868 280.320 89.198 280.884Q89.528 281.448 89.528 282.144L89.528 282.144ZM86.576 283.500Q87.356 283.500 87.740 283.146Q88.124 282.792 88.124 282.144L88.124 282.144Q88.124 280.776 86.576 280.776L86.576 280.776L85.064 280.776L85.064 283.500L86.576 283.500Z M100.200 288L98.568 288L96.648 284.664L95.604 284.664L95.604 288L94.236 288L94.236 279.660L97.116 279.660Q98.076 279.660 98.742 279.996Q99.408 280.332 99.738 280.896Q100.068 281.460 100.068 282.156L100.068 282.156Q100.068 282.972 99.594 283.638Q99.120 284.304 98.136 284.544L98.136 284.544L100.200 288ZM95.604 280.776L95.604 283.572L97.116 283.572Q97.884 283.572 98.274 283.188Q98.664 282.804 98.664 282.156L98.664 282.156Q98.664 281.508 98.280 281.142Q97.896 280.776 97.116 280.776L97.116 280.776L95.604 280.776Z M109.024 288.084Q107.860 288.084 106.882 287.538Q105.904 286.992 105.334 286.014Q104.764 285.036 104.764 283.812L104.764 283.812Q104.764 282.588 105.334 281.616Q105.904 280.644 106.882 280.098Q107.860 279.552 109.024 279.552L109.024 279.552Q110.200 279.552 111.178 280.098Q112.156 280.644 112.720 281.616Q113.284 282.588 113.284 283.812L113.284 283.812Q113.284 285.036 112.720 286.014Q112.156 286.992 111.178 287.538Q110.200 288.084 109.024 288.084L109.024 288.084ZM109.024 286.896Q109.852 286.896 110.500 286.518Q111.148 286.140 111.514 285.438Q111.880 284.736 111.880 283.812L111.880 283.812Q111.880 282.888 111.514 282.192Q111.148 281.496 110.500 281.124Q109.852 280.752 109.024 280.752L109.024 280.752Q108.196 280.752 107.548 281.124Q106.900 281.496 106.534 282.192Q106.168 282.888 106.168 283.812L106.168 283.812Q106.168 284.736 106.534 285.438Q106.900 286.140 107.548 286.518Q108.196 286.896 109.024 286.896L109.024 286.896Z M120.752 279.660Q122.084 279.660 123.086 280.170Q124.088 280.680 124.634 281.634Q125.180 282.588 125.180 283.860L125.180 283.860Q125.180 285.132 124.634 286.068Q124.088 287.004 123.086 287.502Q122.084 288 120.752 288L120.752 288L118.028 288L118.028 279.660L120.752 279.660ZM120.752 286.884Q122.216 286.884 122.996 286.092Q123.776 285.300 123.776 283.860L123.776 283.860Q123.776 282.408 122.996 281.592Q122.216 280.776 120.752 280.776L120.752 280.776L119.396 280.776L119.396 286.884L120.752 286.884Z M133.740 288.084Q132.576 288.084 131.598 287.538Q130.620 286.992 130.050 286.014Q129.480 285.036 129.480 283.812L129.480 283.812Q129.480 282.588 130.050 281.616Q130.620 280.644 131.598 280.098Q132.576 279.552 133.740 279.552L133.740 279.552Q134.916 279.552 135.894 280.098Q136.872 280.644 137.436 281.616Q138 282.588 138 283.812L138 283.812Q138 285.036 137.436 286.014Q136.872 286.992 135.894 287.538Q134.916 288.084 133.740 288.084L133.740 288.084ZM133.740 286.896Q134.568 286.896 135.216 286.518Q135.864 286.140 136.230 285.438Q136.596 284.736 136.596 283.812L136.596 283.812Q136.596 282.888 136.230 282.192Q135.864 281.496 135.216 281.124Q134.568 280.752 133.740 280.752L133.740 280.752Q132.912 280.752 132.264 281.124Q131.616 281.496 131.250 282.192Q130.884 282.888 130.884 283.812L130.884 283.812Q130.884 284.736 131.250 285.438Q131.616 286.140 132.264 286.518Q132.912 286.896 133.740 286.896L133.740 286.896Z M142.312 279.660L148.132 279.660L148.132 280.776L145.912 280.776L145.912 288L144.544 288L144.544 280.776L142.312 280.776L142.312 279.660Z M152.480 279.660L158.300 279.660L158.300 280.776L156.080 280.776L156.080 288L154.712 288L154.712 280.776L152.480 280.776L152.480 279.660Z M163.080 279.660L164.448 279.660L164.448 288L163.080 288L163.080 279.660Z  M178.892 279.660Q180.224 279.660 181.226 280.170Q182.228 280.680 182.774 281.634Q183.320 282.588 183.320 283.860L183.320 283.860Q183.320 285.132 182.774 286.068Q182.228 287.004 181.226 287.502Q180.224 288 178.892 288L178.892 288L176.168 288L176.168 279.660L178.892 279.660ZM178.892 286.884Q180.356 286.884 181.136 286.092Q181.916 285.300 181.916 283.860L181.916 283.860Q181.916 282.408 181.136 281.592Q180.356 280.776 178.892 280.776L178.892 280.776L177.536 280.776L177.536 286.884L178.892 286.884Z M188.076 279.660L189.444 279.660L189.444 288L188.076 288L188.076 279.660Z M202.324 282.060L200.680 282.060Q200.356 281.436 199.780 281.118Q199.204 280.800 198.448 280.800L198.448 280.800Q197.620 280.800 196.972 281.172Q196.324 281.544 195.958 282.228Q195.592 282.912 195.592 283.812L195.592 283.812Q195.592 284.712 195.958 285.402Q196.324 286.092 196.972 286.464Q197.620 286.836 198.448 286.836L198.448 286.836Q199.564 286.836 200.260 286.212Q200.956 285.588 201.112 284.520L201.112 284.520L197.980 284.520L197.980 283.428L202.576 283.428L202.576 284.496Q202.444 285.468 201.886 286.284Q201.328 287.100 200.434 287.586Q199.540 288.072 198.448 288.072L198.448 288.072Q197.272 288.072 196.300 287.526Q195.328 286.980 194.758 286.008Q194.188 285.036 194.188 283.812L194.188 283.812Q194.188 282.588 194.758 281.616Q195.328 280.644 196.306 280.098Q197.284 279.552 198.448 279.552L198.448 279.552Q199.780 279.552 200.818 280.206Q201.856 280.860 202.324 282.060L202.324 282.060Z M207.320 279.660L208.688 279.660L208.688 288L207.320 288L207.320 279.660Z M213.456 279.660L219.276 279.660L219.276 280.776L217.056 280.776L217.056 288L215.688 288L215.688 280.776L213.456 280.776L213.456 279.660Z M229.684 288L229.084 286.296L225.592 286.296L224.992 288L223.564 288L226.552 279.648L228.136 279.648L231.124 288L229.684 288ZM225.976 285.180L228.700 285.180L227.344 281.304L225.976 285.180Z M237.188 279.660L237.188 286.896L240.008 286.896L240.008 288L235.820 288L235.820 279.660L237.188 279.660Z M244.548 279.660L245.916 279.660L245.916 288L244.548 288L244.548 279.660Z  M262.244 280.764L259.004 280.764L259.004 283.212L261.884 283.212L261.884 284.328L259.004 284.328L259.004 286.884L262.244 286.884L262.244 288L257.636 288L257.636 279.648L262.244 279.648L262.244 280.764Z M270.048 279.660Q271.380 279.660 272.382 280.170Q273.384 280.680 273.930 281.634Q274.476 282.588 274.476 283.860L274.476 283.860Q274.476 285.132 273.930 286.068Q273.384 287.004 272.382 287.502Q271.380 288 270.048 288L270.048 288L267.324 288L267.324 279.660L270.048 279.660ZM270.048 286.884Q271.512 286.884 272.292 286.092Q273.072 285.300 273.072 283.860L273.072 283.860Q273.072 282.408 272.292 281.592Q271.512 280.776 270.048 280.776L270.048 280.776L268.692 280.776L268.692 286.884L270.048 286.884Z  M290.360 280.764L287.120 280.764L287.120 283.212L290.000 283.212L290.000 284.328L287.120 284.328L287.120 286.884L290.360 286.884L290.360 288L285.752 288L285.752 279.648L290.360 279.648L290.360 280.764Z M298.164 279.660Q299.496 279.660 300.498 280.170Q301.500 280.680 302.046 281.634Q302.592 282.588 302.592 283.860L302.592 283.860Q302.592 285.132 302.046 286.068Q301.500 287.004 300.498 287.502Q299.496 288 298.164 288L298.164 288L295.440 288L295.440 279.660L298.164 279.660ZM298.164 286.884Q299.628 286.884 300.408 286.092Q301.188 285.300 301.188 283.860L301.188 283.860Q301.188 282.408 300.408 281.592Q299.628 280.776 298.164 280.776L298.164 280.776L296.808 280.776L296.808 286.884L298.164 286.884Z M307.348 279.660L308.716 279.660L308.716 288L307.348 288L307.348 279.660Z M313.484 279.660L319.304 279.660L319.304 280.776L317.084 280.776L317.084 288L315.716 288L315.716 280.776L313.484 280.776L313.484 279.660Z M327.888 288.084Q326.724 288.084 325.746 287.538Q324.768 286.992 324.198 286.014Q323.628 285.036 323.628 283.812L323.628 283.812Q323.628 282.588 324.198 281.616Q324.768 280.644 325.746 280.098Q326.724 279.552 327.888 279.552L327.888 279.552Q329.064 279.552 330.042 280.098Q331.020 280.644 331.584 281.616Q332.148 282.588 332.148 283.812L332.148 283.812Q332.148 285.036 331.584 286.014Q331.020 286.992 330.042 287.538Q329.064 288.084 327.888 288.084L327.888 288.084ZM327.888 286.896Q328.716 286.896 329.364 286.518Q330.012 286.140 330.378 285.438Q330.744 284.736 330.744 283.812L330.744 283.812Q330.744 282.888 330.378 282.192Q330.012 281.496 329.364 281.124Q328.716 280.752 327.888 280.752L327.888 280.752Q327.060 280.752 326.412 281.124Q325.764 281.496 325.398 282.192Q325.032 282.888 325.032 283.812L325.032 283.812Q325.032 284.736 325.398 285.438Q325.764 286.140 326.412 286.518Q327.060 286.896 327.888 286.896L327.888 286.896Z M342.856 288L341.224 288L339.304 284.664L338.260 284.664L338.260 288L336.892 288L336.892 279.660L339.772 279.660Q340.732 279.660 341.398 279.996Q342.064 280.332 342.394 280.896Q342.724 281.460 342.724 282.156L342.724 282.156Q342.724 282.972 342.250 283.638Q341.776 284.304 340.792 284.544L340.792 284.544L342.856 288ZM338.260 280.776L338.260 283.572L339.772 283.572Q340.540 283.572 340.930 283.188Q341.320 282.804 341.320 282.156L341.320 282.156Q341.320 281.508 340.936 281.142Q340.552 280.776 339.772 280.776L339.772 280.776L338.260 280.776Z M347.876 279.660L349.244 279.660L349.244 288L347.876 288L347.876 279.660Z M360.072 288L359.472 286.296L355.980 286.296L355.380 288L353.952 288L356.940 279.648L358.524 279.648L361.512 288L360.072 288ZM356.364 285.180L359.088 285.180L357.732 281.304L356.364 285.180Z M367.576 279.660L367.576 286.896L370.396 286.896L370.396 288L366.208 288L366.208 279.660L367.576 279.660Z M374.936 279.660L376.304 279.660L376.304 288L374.936 288L374.936 279.660Z" fill="#a99377"></path></svg>