<svg xmlns="http://www.w3.org/2000/svg" width="620" height="150" viewBox="0 0 620 150" fill="none"><g transform="translate(20,20) scale(0.6)"><ellipse cx="110" cy="82" rx="86" ry="33" transform="rotate(34 110 82)" stroke="#a99377" stroke-width="6.5"></ellipse><ellipse cx="110" cy="82" rx="86" ry="33" transform="rotate(-34 110 82)" stroke="#16171f" stroke-width="7.5"></ellipse><circle cx="110" cy="82" r="15" fill="#16171f"></circle><circle cx="182" cy="43" r="10.5" fill="#3f4fe0"></circle></g><path d="M179.200 58.448Q180.304 56 182.584 54.656Q184.864 53.312 188.176 53.312L188.176 53.312L188.176 56.816L187.264 56.816Q183.616 56.816 181.408 58.784Q179.200 60.752 179.200 65.360L179.200 65.360L179.200 80L175.840 80L175.840 53.792L179.200 53.792L179.200 58.448Z M216.928 65.552Q216.928 67.280 216.832 68.192L216.832 68.192L195.088 68.192Q195.232 71.168 196.528 73.280Q197.824 75.392 199.936 76.472Q202.048 77.552 204.544 77.552L204.544 77.552Q207.808 77.552 210.040 75.968Q212.272 74.384 212.992 71.696L212.992 71.696L216.544 71.696Q215.584 75.536 212.440 77.960Q209.296 80.384 204.544 80.384L204.544 80.384Q200.848 80.384 197.920 78.728Q194.992 77.072 193.336 74.024Q191.680 70.976 191.680 66.896L191.680 66.896Q191.680 62.816 193.312 59.744Q194.944 56.672 197.872 55.040Q200.800 53.408 204.544 53.408L204.544 53.408Q208.288 53.408 211.096 55.040Q213.904 56.672 215.416 59.432Q216.928 62.192 216.928 65.552L216.928 65.552ZM213.520 65.456Q213.568 62.528 212.344 60.464Q211.120 58.400 209.008 57.344Q206.896 56.288 204.400 56.288L204.400 56.288Q200.656 56.288 198.016 58.688Q195.376 61.088 195.088 65.456L195.088 65.456L213.520 65.456Z M223.072 44.480L226.432 44.480L226.432 80L223.072 80L223.072 44.480Z M232.528 66.848Q232.528 62.816 234.136 59.768Q235.744 56.720 238.600 55.064Q241.456 53.408 245.056 53.408L245.056 53.408Q248.800 53.408 251.512 55.136Q254.224 56.864 255.424 59.552L255.424 59.552L255.424 53.792L258.784 53.792L258.784 80L255.424 80L255.424 74.192Q254.176 76.880 251.464 78.632Q248.752 80.384 245.008 80.384L245.008 80.384Q241.456 80.384 238.600 78.704Q235.744 77.024 234.136 73.952Q232.528 70.880 232.528 66.848L232.528 66.848ZM255.424 66.896Q255.424 63.728 254.128 61.328Q252.832 58.928 250.600 57.632Q248.368 56.336 245.680 56.336L245.680 56.336Q242.896 56.336 240.688 57.584Q238.480 58.832 237.208 61.208Q235.936 63.584 235.936 66.848L235.936 66.848Q235.936 70.064 237.208 72.488Q238.480 74.912 240.688 76.184Q242.896 77.456 245.680 77.456L245.680 77.456Q248.368 77.456 250.600 76.160Q252.832 74.864 254.128 72.464Q255.424 70.064 255.424 66.896L255.424 66.896Z M264.928 66.848Q264.928 62.816 266.560 59.768Q268.192 56.720 271.048 55.064Q273.904 53.408 277.504 53.408L277.504 53.408Q281.200 53.408 283.936 55.160Q286.672 56.912 287.824 59.552L287.824 59.552L287.824 53.792L291.184 53.792L291.184 92.384L287.824 92.384L287.824 74.240Q286.672 76.880 283.912 78.632Q281.152 80.384 277.408 80.384L277.408 80.384Q273.856 80.384 271.000 78.704Q268.144 77.024 266.536 73.952Q264.928 70.880 264.928 66.848L264.928 66.848ZM287.824 66.896Q287.824 63.728 286.528 61.328Q285.232 58.928 283.000 57.632Q280.768 56.336 278.080 56.336L278.080 56.336Q275.296 56.336 273.088 57.584Q270.880 58.832 269.608 61.208Q268.336 63.584 268.336 66.848L268.336 66.848Q268.336 70.064 269.608 72.488Q270.880 74.912 273.088 76.184Q275.296 77.456 278.080 77.456L278.080 77.456Q280.768 77.456 283.000 76.160Q285.232 74.864 286.528 72.464Q287.824 70.064 287.824 66.896L287.824 66.896Z M318.208 53.792L321.568 53.792L321.568 80L318.208 80L318.208 75.392Q317.056 77.840 314.656 79.136Q312.256 80.432 309.280 80.432L309.280 80.432Q304.576 80.432 301.600 77.528Q298.624 74.624 298.624 69.104L298.624 69.104L298.624 53.792L301.936 53.792L301.936 68.720Q301.936 72.992 304.072 75.248Q306.208 77.504 309.904 77.504L309.904 77.504Q313.696 77.504 315.952 75.104Q318.208 72.704 318.208 68.048L318.208 68.048L318.208 53.792Z M327.712 66.848Q327.712 62.816 329.320 59.768Q330.928 56.720 333.784 55.064Q336.640 53.408 340.240 53.408L340.240 53.408Q343.984 53.408 346.696 55.136Q349.408 56.864 350.608 59.552L350.608 59.552L350.608 53.792L353.968 53.792L353.968 80L350.608 80L350.608 74.192Q349.360 76.880 346.648 78.632Q343.936 80.384 340.192 80.384L340.192 80.384Q336.640 80.384 333.784 78.704Q330.928 77.024 329.320 73.952Q327.712 70.880 327.712 66.848L327.712 66.848ZM350.608 66.896Q350.608 63.728 349.312 61.328Q348.016 58.928 345.784 57.632Q343.552 56.336 340.864 56.336L340.864 56.336Q338.080 56.336 335.872 57.584Q333.664 58.832 332.392 61.208Q331.120 63.584 331.120 66.848L331.120 66.848Q331.120 70.064 332.392 72.488Q333.664 74.912 335.872 76.184Q338.080 77.456 340.864 77.456L340.864 77.456Q343.552 77.456 345.784 76.160Q348.016 74.864 349.312 72.464Q350.608 70.064 350.608 66.896L350.608 66.896Z M373.936 53.312Q378.640 53.312 381.616 56.216Q384.592 59.120 384.592 64.640L384.592 64.640L384.592 80L381.280 80L381.280 65.024Q381.280 60.752 379.144 58.496Q377.008 56.240 373.312 56.240L373.312 56.240Q369.520 56.240 367.264 58.640Q365.008 61.040 365.008 65.696L365.008 65.696L365.008 80L361.648 80L361.648 53.792L365.008 53.792L365.008 58.256Q366.256 55.856 368.608 54.584Q370.960 53.312 373.936 53.312L373.936 53.312Z M403.600 56.624L396.400 56.624L396.400 72.896Q396.400 75.296 397.312 76.208Q398.224 77.120 400.528 77.120L400.528 77.120L403.600 77.120L403.600 80L400.000 80Q396.448 80 394.720 78.344Q392.992 76.688 392.992 72.896L392.992 72.896L392.992 56.624L389.344 56.624L389.344 53.792L392.992 53.792L392.992 47.216L396.400 47.216L396.400 53.792L403.600 53.792L403.600 56.624Z M410.800 48.848Q409.792 48.848 409.072 48.128Q408.352 47.408 408.352 46.352L408.352 46.352Q408.352 45.296 409.072 44.600Q409.792 43.904 410.800 43.904L410.800 43.904Q411.808 43.904 412.528 44.600Q413.248 45.296 413.248 46.352L413.248 46.352Q413.248 47.408 412.528 48.128Q411.808 48.848 410.800 48.848L410.800 48.848ZM409.120 53.792L412.480 53.792L412.480 80L409.120 80L409.120 53.792Z M437.632 80L433.840 80L427.072 69.440L420.544 80L416.992 80L425.440 66.896L417.088 53.792L420.880 53.792L427.552 64.208L434.032 53.792L437.536 53.792L429.184 66.752L437.632 80Z" fill="#16171f"></path><path d="M179.891 100.876Q179.891 101.433 179.628 101.926Q179.365 102.419 178.788 102.729Q178.210 103.039 177.308 103.039L177.308 103.039L175.984 103.039L175.984 106L174.787 106L174.787 98.703L177.308 98.703Q178.148 98.703 178.730 98.991Q179.313 99.280 179.602 99.773Q179.891 100.267 179.891 100.876L179.891 100.876ZM177.308 102.063Q177.990 102.063 178.326 101.753Q178.662 101.443 178.662 100.876L178.662 100.876Q178.662 99.679 177.308 99.679L177.308 99.679L175.984 99.679L175.984 102.063L177.308 102.063Z M188.754 106L187.326 106L185.645 103.081L184.732 103.081L184.732 106L183.535 106L183.535 98.703L186.055 98.703Q186.895 98.703 187.478 98.996Q188.060 99.290 188.349 99.784Q188.638 100.278 188.638 100.886L188.638 100.886Q188.638 101.600 188.223 102.183Q187.809 102.766 186.947 102.976L186.947 102.976L188.754 106ZM184.732 99.679L184.732 102.126L186.055 102.126Q186.727 102.126 187.068 101.790Q187.410 101.454 187.410 100.886L187.410 100.886Q187.410 100.320 187.073 99.999Q186.738 99.679 186.055 99.679L186.055 99.679L184.732 99.679Z M196.000 106.073Q194.981 106.073 194.125 105.596Q193.269 105.118 192.771 104.262Q192.272 103.406 192.272 102.335L192.272 102.335Q192.272 101.264 192.771 100.414Q193.269 99.564 194.125 99.086Q194.981 98.608 196.000 98.608L196.000 98.608Q197.029 98.608 197.884 99.086Q198.740 99.564 199.233 100.414Q199.727 101.264 199.727 102.335L199.727 102.335Q199.727 103.406 199.233 104.262Q198.740 105.118 197.884 105.596Q197.029 106.073 196.000 106.073L196.000 106.073ZM196.000 105.034Q196.724 105.034 197.291 104.703Q197.858 104.373 198.178 103.758Q198.499 103.144 198.499 102.335L198.499 102.335Q198.499 101.527 198.178 100.918Q197.858 100.309 197.291 99.983Q196.724 99.658 196.000 99.658L196.000 99.658Q195.275 99.658 194.708 99.983Q194.141 100.309 193.821 100.918Q193.500 101.527 193.500 102.335L193.500 102.335Q193.500 103.144 193.821 103.758Q194.141 104.373 194.708 104.703Q195.275 105.034 196.000 105.034L196.000 105.034Z M205.786 98.703Q206.952 98.703 207.829 99.149Q208.706 99.595 209.183 100.430Q209.661 101.264 209.661 102.377L209.661 102.377Q209.661 103.490 209.183 104.309Q208.706 105.129 207.829 105.564Q206.952 106 205.786 106L205.786 106L203.403 106L203.403 98.703L205.786 98.703ZM205.786 105.023Q207.067 105.023 207.750 104.331Q208.433 103.638 208.433 102.377L208.433 102.377Q208.433 101.107 207.750 100.393Q207.067 99.679 205.786 99.679L205.786 99.679L204.600 99.679L204.600 105.023L205.786 105.023Z M216.676 106.073Q215.657 106.073 214.802 105.596Q213.946 105.118 213.447 104.262Q212.948 103.406 212.948 102.335L212.948 102.335Q212.948 101.264 213.447 100.414Q213.946 99.564 214.802 99.086Q215.657 98.608 216.676 98.608L216.676 98.608Q217.705 98.608 218.561 99.086Q219.417 99.564 219.910 100.414Q220.404 101.264 220.404 102.335L220.404 102.335Q220.404 103.406 219.910 104.262Q219.417 105.118 218.561 105.596Q217.705 106.073 216.676 106.073L216.676 106.073ZM216.676 105.034Q217.400 105.034 217.968 104.703Q218.535 104.373 218.855 103.758Q219.175 103.144 219.175 102.335L219.175 102.335Q219.175 101.527 218.855 100.918Q218.535 100.309 217.968 99.983Q217.400 99.658 216.676 99.658L216.676 99.658Q215.952 99.658 215.385 99.983Q214.817 100.309 214.497 100.918Q214.177 101.527 214.177 102.335L214.177 102.335Q214.177 103.144 214.497 103.758Q214.817 104.373 215.385 104.703Q215.952 105.034 216.676 105.034L216.676 105.034Z M223.702 98.703L228.794 98.703L228.794 99.679L226.852 99.679L226.852 106L225.655 106L225.655 99.679L223.702 99.679L223.702 98.703Z M232.124 98.703L237.216 98.703L237.216 99.679L235.274 99.679L235.274 106L234.077 106L234.077 99.679L232.124 99.679L232.124 98.703Z M240.923 98.703L242.120 98.703L242.120 106L240.923 106L240.923 98.703Z  M253.809 98.703Q254.974 98.703 255.851 99.149Q256.728 99.595 257.206 100.430Q257.683 101.264 257.683 102.377L257.683 102.377Q257.683 103.490 257.206 104.309Q256.728 105.129 255.851 105.564Q254.974 106 253.809 106L253.809 106L251.425 106L251.425 98.703L253.809 98.703ZM253.809 105.023Q255.090 105.023 255.772 104.331Q256.455 103.638 256.455 102.377L256.455 102.377Q256.455 101.107 255.772 100.393Q255.090 99.679 253.809 99.679L253.809 99.679L252.622 99.679L252.622 105.023L253.809 105.023Z M261.370 98.703L262.567 98.703L262.567 106L261.370 106L261.370 98.703Z M273.362 100.802L271.923 100.802Q271.640 100.257 271.136 99.978Q270.632 99.700 269.970 99.700L269.970 99.700Q269.246 99.700 268.679 100.025Q268.112 100.351 267.792 100.950Q267.471 101.548 267.471 102.335L267.471 102.335Q267.471 103.123 267.792 103.727Q268.112 104.331 268.679 104.656Q269.246 104.981 269.970 104.981L269.970 104.981Q270.947 104.981 271.556 104.436Q272.165 103.889 272.301 102.955L272.301 102.955L269.561 102.955L269.561 101.999L273.582 101.999L273.582 102.934Q273.467 103.784 272.979 104.499Q272.490 105.213 271.708 105.638Q270.926 106.063 269.970 106.063L269.970 106.063Q268.941 106.063 268.091 105.585Q267.240 105.108 266.742 104.257Q266.243 103.406 266.243 102.335L266.243 102.335Q266.243 101.264 266.742 100.414Q267.240 99.564 268.096 99.086Q268.952 98.608 269.970 98.608L269.970 98.608Q271.136 98.608 272.044 99.180Q272.952 99.752 273.362 100.802L273.362 100.802Z M277.258 98.703L278.455 98.703L278.455 106L277.258 106L277.258 98.703Z M282.152 98.703L287.245 98.703L287.245 99.679L285.302 99.679L285.302 106L284.105 106L284.105 99.679L282.152 99.679L282.152 98.703Z M295.877 106L295.352 104.509L292.296 104.509L291.771 106L290.522 106L293.136 98.692L294.522 98.692L297.137 106L295.877 106ZM292.632 103.532L295.016 103.532L293.829 100.141L292.632 103.532Z M301.968 98.703L301.968 105.034L304.435 105.034L304.435 106L300.771 106L300.771 98.703L301.968 98.703Z M307.933 98.703L309.130 98.703L309.130 106L307.933 106L307.933 98.703Z  M322.467 99.668L319.632 99.668L319.632 101.811L322.152 101.811L322.152 102.787L319.632 102.787L319.632 105.023L322.467 105.023L322.467 106L318.435 106L318.435 98.692L322.467 98.692L322.467 99.668Z M328.820 98.703Q329.986 98.703 330.863 99.149Q331.739 99.595 332.217 100.430Q332.695 101.264 332.695 102.377L332.695 102.377Q332.695 103.490 332.217 104.309Q331.739 105.129 330.863 105.564Q329.986 106 328.820 106L328.820 106L326.437 106L326.437 98.703L328.820 98.703ZM328.820 105.023Q330.101 105.023 330.784 104.331Q331.466 103.638 331.466 102.377L331.466 102.377Q331.466 101.107 330.784 100.393Q330.101 99.679 328.820 99.679L328.820 99.679L327.634 99.679L327.634 105.023L328.820 105.023Z  M345.643 99.668L342.808 99.668L342.808 101.811L345.328 101.811L345.328 102.787L342.808 102.787L342.808 105.023L345.643 105.023L345.643 106L341.611 106L341.611 98.692L345.643 98.692L345.643 99.668Z M351.997 98.703Q353.162 98.703 354.039 99.149Q354.916 99.595 355.394 100.430Q355.871 101.264 355.871 102.377L355.871 102.377Q355.871 103.490 355.394 104.309Q354.916 105.129 354.039 105.564Q353.162 106 351.997 106L351.997 106L349.613 106L349.613 98.703L351.997 98.703ZM351.997 105.023Q353.278 105.023 353.960 104.331Q354.643 103.638 354.643 102.377L354.643 102.377Q354.643 101.107 353.960 100.393Q353.278 99.679 351.997 99.679L351.997 99.679L350.810 99.679L350.810 105.023L351.997 105.023Z M359.558 98.703L360.755 98.703L360.755 106L359.558 106L359.558 98.703Z M364.452 98.703L369.544 98.703L369.544 99.679L367.602 99.679L367.602 106L366.405 106L366.405 99.679L364.452 99.679L364.452 98.703Z M376.580 106.073Q375.562 106.073 374.706 105.596Q373.851 105.118 373.352 104.262Q372.853 103.406 372.853 102.335L372.853 102.335Q372.853 101.264 373.352 100.414Q373.851 99.564 374.706 99.086Q375.562 98.608 376.580 98.608L376.580 98.608Q377.609 98.608 378.465 99.086Q379.321 99.564 379.815 100.414Q380.308 101.264 380.308 102.335L380.308 102.335Q380.308 103.406 379.815 104.262Q379.321 105.118 378.465 105.596Q377.609 106.073 376.580 106.073L376.580 106.073ZM376.580 105.034Q377.305 105.034 377.872 104.703Q378.439 104.373 378.759 103.758Q379.079 103.144 379.079 102.335L379.079 102.335Q379.079 101.527 378.759 100.918Q378.439 100.309 377.872 99.983Q377.305 99.658 376.580 99.658L376.580 99.658Q375.856 99.658 375.289 99.983Q374.722 100.309 374.402 100.918Q374.082 101.527 374.082 102.335L374.082 102.335Q374.082 103.144 374.402 103.758Q374.722 104.373 375.289 104.703Q375.856 105.034 376.580 105.034L376.580 105.034Z M389.202 106L387.774 106L386.095 103.081L385.181 103.081L385.181 106L383.984 106L383.984 98.703L386.504 98.703Q387.344 98.703 387.927 98.996Q388.510 99.290 388.798 99.784Q389.087 100.278 389.087 100.886L389.087 100.886Q389.087 101.600 388.672 102.183Q388.257 102.766 387.397 102.976L387.397 102.976L389.202 106ZM385.181 99.679L385.181 102.126L386.504 102.126Q387.176 102.126 387.517 101.790Q387.858 101.454 387.858 100.886L387.858 100.886Q387.858 100.320 387.523 99.999Q387.187 99.679 386.504 99.679L386.504 99.679L385.181 99.679Z M393.120 98.703L394.317 98.703L394.317 106L393.120 106L393.120 98.703Z M403.317 106L402.792 104.509L399.736 104.509L399.211 106L397.962 106L400.576 98.692L401.962 98.692L404.577 106L403.317 106ZM400.072 103.532L402.456 103.532L401.269 100.141L400.072 103.532Z M409.408 98.703L409.408 105.034L411.875 105.034L411.875 106L408.211 106L408.211 98.703L409.408 98.703Z M415.373 98.703L416.570 98.703L416.570 106L415.373 106L415.373 98.703Z" fill="#a99377"></path></svg>