<svg xmlns="http://www.w3.org/2000/svg" width="706" height="160" viewBox="0 0 706 160" fill="none"><path d="M38 66.120Q40.760 60 46.460 56.640Q52.160 53.280 60.440 53.280L60.440 53.280L60.440 62.040L58.160 62.040Q49.040 62.040 43.520 66.960Q38 71.880 38 83.400L38 83.400L38 120L29.600 120L29.600 54.480L38 54.480L38 66.120Z M132.320 83.880Q132.320 88.200 132.080 90.480L132.080 90.480L77.720 90.480Q78.080 97.920 81.320 103.200Q84.560 108.480 89.840 111.180Q95.120 113.880 101.360 113.880L101.360 113.880Q109.520 113.880 115.100 109.920Q120.680 105.960 122.480 99.240L122.480 99.240L131.360 99.240Q128.960 108.840 121.100 114.900Q113.240 120.960 101.360 120.960L101.360 120.960Q92.120 120.960 84.800 116.820Q77.480 112.680 73.340 105.060Q69.200 97.440 69.200 87.240L69.200 87.240Q69.200 77.040 73.280 69.360Q77.360 61.680 84.680 57.600Q92 53.520 101.360 53.520L101.360 53.520Q110.720 53.520 117.740 57.600Q124.760 61.680 128.540 68.580Q132.320 75.480 132.320 83.880L132.320 83.880ZM123.800 83.640Q123.920 76.320 120.860 71.160Q117.800 66 112.520 63.360Q107.240 60.720 101 60.720L101 60.720Q91.640 60.720 85.040 66.720Q78.440 72.720 77.720 83.640L77.720 83.640L123.800 83.640Z M147.680 31.200L156.080 31.200L156.080 120L147.680 120L147.680 31.200Z M171.320 87.120Q171.320 77.040 175.340 69.420Q179.360 61.800 186.500 57.660Q193.640 53.520 202.640 53.520L202.640 53.520Q212.000 53.520 218.780 57.840Q225.560 62.160 228.560 68.880L228.560 68.880L228.560 54.480L236.960 54.480L236.960 120L228.560 120L228.560 105.480Q225.440 112.200 218.660 116.580Q211.880 120.960 202.520 120.960L202.520 120.960Q193.640 120.960 186.500 116.760Q179.360 112.560 175.340 104.880Q171.320 97.200 171.320 87.120L171.320 87.120ZM228.560 87.240Q228.560 79.320 225.320 73.320Q222.080 67.320 216.500 64.080Q210.920 60.840 204.200 60.840L204.200 60.840Q197.240 60.840 191.720 63.960Q186.200 67.080 183.020 73.020Q179.840 78.960 179.840 87.120L179.840 87.120Q179.840 95.160 183.020 101.220Q186.200 107.280 191.720 110.460Q197.240 113.640 204.200 113.640L204.200 113.640Q210.920 113.640 216.500 110.400Q222.080 107.160 225.320 101.160Q228.560 95.160 228.560 87.240L228.560 87.240Z M252.320 87.120Q252.320 77.040 256.400 69.420Q260.480 61.800 267.620 57.660Q274.760 53.520 283.760 53.520L283.760 53.520Q293 53.520 299.840 57.900Q306.680 62.280 309.560 68.880L309.560 68.880L309.560 54.480L317.960 54.480L317.960 150.960L309.560 150.960L309.560 105.600Q306.680 112.200 299.780 116.580Q292.880 120.960 283.520 120.960L283.520 120.960Q274.640 120.960 267.500 116.760Q260.360 112.560 256.340 104.880Q252.320 97.200 252.320 87.120L252.320 87.120ZM309.560 87.240Q309.560 79.320 306.320 73.320Q303.080 67.320 297.500 64.080Q291.920 60.840 285.200 60.840L285.200 60.840Q278.240 60.840 272.720 63.960Q267.200 67.080 264.020 73.020Q260.840 78.960 260.840 87.120L260.840 87.120Q260.840 95.160 264.020 101.220Q267.200 107.280 272.720 110.460Q278.240 113.640 285.200 113.640L285.200 113.640Q291.920 113.640 297.500 110.400Q303.080 107.160 306.320 101.160Q309.560 95.160 309.560 87.240L309.560 87.240Z M385.520 54.480L393.920 54.480L393.920 120L385.520 120L385.520 108.480Q382.640 114.600 376.640 117.840Q370.640 121.080 363.200 121.080L363.200 121.080Q351.440 121.080 344.000 113.820Q336.560 106.560 336.560 92.760L336.560 92.760L336.560 54.480L344.840 54.480L344.840 91.800Q344.840 102.480 350.180 108.120Q355.520 113.760 364.760 113.760L364.760 113.760Q374.240 113.760 379.880 107.760Q385.520 101.760 385.520 90.120L385.520 90.120L385.520 54.480Z M409.280 87.120Q409.280 77.040 413.300 69.420Q417.320 61.800 424.460 57.660Q431.600 53.520 440.600 53.520L440.600 53.520Q449.960 53.520 456.740 57.840Q463.520 62.160 466.520 68.880L466.520 68.880L466.520 54.480L474.920 54.480L474.920 120L466.520 120L466.520 105.480Q463.400 112.200 456.620 116.580Q449.840 120.960 440.480 120.960L440.480 120.960Q431.600 120.960 424.460 116.760Q417.320 112.560 413.300 104.880Q409.280 97.200 409.280 87.120L409.280 87.120ZM466.520 87.240Q466.520 79.320 463.280 73.320Q460.040 67.320 454.460 64.080Q448.880 60.840 442.160 60.840L442.160 60.840Q435.200 60.840 429.680 63.960Q424.160 67.080 420.980 73.020Q417.800 78.960 417.800 87.120L417.800 87.120Q417.800 95.160 420.980 101.220Q424.160 107.280 429.680 110.460Q435.200 113.640 442.160 113.640L442.160 113.640Q448.880 113.640 454.460 110.400Q460.040 107.160 463.280 101.160Q466.520 95.160 466.520 87.240L466.520 87.240Z M524.840 53.280Q536.600 53.280 544.040 60.540Q551.480 67.800 551.480 81.600L551.480 81.600L551.480 120L543.200 120L543.200 82.560Q543.200 71.880 537.860 66.240Q532.520 60.600 523.280 60.600L523.280 60.600Q513.800 60.600 508.160 66.600Q502.520 72.600 502.520 84.240L502.520 84.240L502.520 120L494.120 120L494.120 54.480L502.520 54.480L502.520 65.640Q505.640 59.640 511.520 56.460Q517.400 53.280 524.840 53.280L524.840 53.280Z M599.000 61.560L581.000 61.560L581.000 102.240Q581.000 108.240 583.280 110.520Q585.560 112.800 591.320 112.800L591.320 112.800L599.000 112.800L599.000 120L590.000 120Q581.120 120 576.800 115.860Q572.480 111.720 572.480 102.240L572.480 102.240L572.480 61.560L563.360 61.560L563.360 54.480L572.480 54.480L572.480 38.040L581.000 38.040L581.000 54.480L599.000 54.480L599.000 61.560Z M617.000 42.120Q614.480 42.120 612.680 40.320Q610.880 38.520 610.880 35.880L610.880 35.880Q610.880 33.240 612.680 31.500Q614.480 29.760 617.000 29.760L617.000 29.760Q619.520 29.760 621.320 31.500Q623.120 33.240 623.120 35.880L623.120 35.880Q623.120 38.520 621.320 40.320Q619.520 42.120 617.000 42.120L617.000 42.120ZM612.800 54.480L621.200 54.480L621.200 120L612.800 120L612.800 54.480Z M684.080 120L674.600 120L657.680 93.600L641.360 120L632.480 120L653.600 87.240L632.720 54.480L642.200 54.480L658.880 80.520L675.080 54.480L683.840 54.480L662.960 86.880L684.080 120Z" fill="#16171f"></path></svg>